<?xml version="1.0" encoding="utf-8"?>
<!-- Generator: Adobe Illustrator 23.0.6, SVG Export Plug-In . SVG Version: 6.00 Build 0)  -->
<svg version="1.1" id="Layer_1" xmlns="http://www.w3.org/2000/svg" xmlns:xlink="http://www.w3.org/1999/xlink" x="0px" y="0px"
	 viewBox="0 0 472.86 327.47" style="enable-background:new 0 0 472.86 327.47;" xml:space="preserve">
<style type="text/css">
	.st0{fill:#F37872;}
	.st1{fill:#F37873;stroke:#F37873;stroke-miterlimit:10;}
	.st2{fill:none;}
</style>
<g>
	<g>
		<g>
			<g>
				<g>
					<path class="st0" d="M173.34,290.03c0.59-0.26-0.04-0.86-0.04-1.03C172.49,289.68,173.47,290.21,173.34,290.03z"/>
					<polygon class="st0" points="164.71,296.52 164.76,296.13 163.61,297.53 					"/>
					<path class="st0" d="M155.18,299.8c0.65,0.56,1.53,0.25,2.46-0.2c0.93-0.49,1.9-1.11,2.84-1.15l0.39,0.2l0.37-1.36
						C159.29,298.22,156.78,299.78,155.18,299.8z"/>
					<path class="st0" d="M149.33,298.02c0.42,0.48-1.01,0.69,1.22-0.07c-0.13-0.04-0.17-0.06-0.24-0.09
						C150.1,297.91,149.82,297.96,149.33,298.02z"/>
					<path class="st0" d="M150.31,297.86C151.3,297.62,149.55,297.53,150.31,297.86L150.31,297.86z"/>
					<path class="st0" d="M145.71,299.03l1.25-0.71c-0.33-0.28-1.52-0.16-1.12-0.47C144.53,298.35,144.84,298.62,145.71,299.03z"/>
					<path class="st0" d="M144.58,300.25c0.23-0.1,0.45-0.2,0.67-0.31C145.11,299.83,144.92,299.82,144.58,300.25z"/>
					<path class="st0" d="M146.67,299.27l-1.41,0.68c0.23,0.2,0.32,0.65,0.66-0.27C145.85,300.12,146.09,299.67,146.67,299.27z"/>
					<path class="st0" d="M147.54,299.35c0.81,0.18,1.82,0.15,0.56,0.92C150.65,299.54,150.06,298.66,147.54,299.35z"/>
					<path class="st0" d="M155.07,301.37l1.14,0.11l0.76-0.71C156.59,301.12,154.89,300.95,155.07,301.37z"/>
					<path class="st0" d="M137.27,299.14c-0.07,0.31,0.49,0.79,0.62,1.17l0.98-0.4C138.34,299.73,137.35,299.59,137.27,299.14z"/>
					<path class="st0" d="M137.88,300.31l-1.49,0.6C137.76,300.9,137.99,300.64,137.88,300.31z"/>
					<path class="st0" d="M144.55,301.85c0.79-0.45,1.57-0.98,2.33-1.46c-0.92,0.53-1.86,1.06-2.82,1.54L144.55,301.85z"/>
					<polygon class="st0" points="131.58,299.18 132.44,298.5 130.92,299.53 					"/>
					<path class="st0" d="M127.81,299.15c0.66-0.55-0.78-1.03-0.1-1.35c-1.01,0.05-1.92,0.44-2.75,0.82
						C125.81,298.43,126.69,298.62,127.81,299.15z"/>
					<path class="st0" d="M123.56,299.13c0.44-0.08,0.9-0.29,1.39-0.51C124.49,298.71,124.04,298.87,123.56,299.13z"/>
					<path class="st0" d="M133.81,300.81c-0.12-0.19-0.35-0.65-1.19-0.86l0.59,0.86C133.39,300.8,133.6,300.81,133.81,300.81z"/>
					<path class="st0" d="M133.23,300.83l-0.02-0.03c-0.65-0.01-1.1-0.06-1.29-0.07C132.09,300.75,132.48,300.78,133.23,300.83z"/>
					<path class="st0" d="M133.96,300.81c-0.06,0-0.1,0-0.15,0C133.87,300.89,133.9,300.92,133.96,300.81z"/>
					<path class="st0" d="M140.45,301.52c-0.85,0.57-2.73,1.21-0.83,1.8C140.22,302.68,139.15,302.36,140.45,301.52z"/>
					<path class="st0" d="M134.72,301.87c0.54,0.05,1.09,0.13,1.64,0.16c-0.04-0.22-0.34-0.54,0.09-0.8
						C135.88,301.47,135.3,301.65,134.72,301.87z"/>
					<polygon class="st0" points="133.92,302.15 134.72,301.87 134.11,301.8 					"/>
					<path class="st0" d="M126.21,300.2c-0.72,0.3-1.49,0.27-2.36,0.24c0.9,0.26,1.85,0.43,2.76,0.52
						C126.77,300.7,127.2,300.26,126.21,300.2z"/>
					<path class="st0" d="M129.61,300.65c-0.05,0.01-0.11,0.03-0.16,0.04C129.55,300.77,129.62,300.8,129.61,300.65z"/>
					<path class="st0" d="M115.43,299.11c0.04,0.06,0.07,0.12,0.1,0.18c0.02-0.05,0.04-0.09,0.06-0.14L115.43,299.11z"/>
					<path class="st0" d="M126.76,301.13c0.68,0.22,1.12,0.02,1.53-0.22c-0.52,0.05-1.08,0.09-1.67,0.04
						C126.55,301.07,126.53,301.15,126.76,301.13z"/>
					<path class="st0" d="M121.18,299.24c0.33,0.22,0.72,0.42,1.13,0.61C121.99,299.54,121.33,299.03,121.18,299.24z"/>
					<path class="st0" d="M129.23,300.44c0.04-0.01,0.07-0.03,0.11-0.03C129.12,300.22,129.15,300.31,129.23,300.44z"/>
					<path class="st0" d="M129.23,300.44c-0.36,0.1-0.65,0.3-0.95,0.47c0.43-0.04,0.82-0.11,1.17-0.22
						C129.37,300.63,129.29,300.53,129.23,300.44z"/>
					<path class="st0" d="M111.67,303.91c0.32-0.76,2.32-1.01,3.79,0.11c1.72-0.28,1.11-3.05,0.07-4.73
						c-0.12,0.32-0.18,0.66-1.86,0.76c0.45,0.57,3.36,1.71,1.86,2.15c-2.24-0.01-1.71-0.65-2.65-1.27c0.33,0.58-0.42,0.78-1.26,1.02
						c-0.83,0.24-1.74,0.49-1.68,1.25c0.68,0,1.35-0.01,2.03-0.04C111.96,303.39,111.18,303.59,111.67,303.91z"/>
					<path class="st0" d="M118.54,299.93l0.67,0.01c-0.72-0.25-1.2-0.65-2.06-1.45c-1.14,0.18-1.43,0.42-1.55,0.67
						c1.06,0.23,2.12,0.5,3.18,0.69L118.54,299.93z"/>
					<path class="st0" d="M122.14,300.36c-0.62,0.8-2.27,0.93-1.42,2c1.98,0.19,1.47-0.54,2.68-0.77c-3.16-0.18,0.95-0.36-1.24-1.13
						c0.63-0.07,1.18-0.05,1.7-0.02c-0.55-0.17-1.07-0.37-1.55-0.59c0.03,0.02,0.04,0.04,0.06,0.06l0.01,0l0,0.01
						c0.12,0.12,0.16,0.19,0.01,0.11c-0.01,0.01-0.05,0.01-0.07,0.01C122.29,300.16,122.22,300.26,122.14,300.36
						c-0.87-0.29-0.11-0.24,0.18-0.31c0.02-0.04,0.04-0.08,0.05-0.12l-0.01-0.01c-1.05,0.04-2.1,0.03-3.16,0.02
						C119.84,300.14,120.67,300.29,122.14,300.36z"/>
					<path class="st0" d="M138.01,305.28c-0.11-0.07-0.1-0.13-0.12-0.19C137.69,305.2,137.61,305.27,138.01,305.28z"/>
					<path class="st0" d="M136.64,304.82c0.23-0.13,0.41-0.49,1.18-0.44c0.68,0.23,0.02,0.41,0.07,0.69
						c0.46-0.25,1.58-0.7,0.11-1.04l-0.22,0.13c-1.32-0.21-3-1.26-2.78-1.39C135.4,303.54,135.74,304.12,136.64,304.82z"/>
					<path class="st0" d="M129.12,303.11c-0.89,0.08-1.79,0.19-2.69,0.26c0.43,0.3,0.87,0.55,1.31,0.83l-0.04-0.45
						C129.22,304.01,128.92,303.44,129.12,303.11z"/>
					<path class="st0" d="M115.22,298.64l0.52-0.83c-0.57,0.33-1.15,0.63-1.73,0.94L115.22,298.64z"/>
					<polygon class="st0" points="111.9,298 112.2,297.26 111.22,297.51 					"/>
					<path class="st0" d="M25.99,144.03l0.07-0.86C25.99,143.56,25.98,143.82,25.99,144.03z"/>
					<path class="st0" d="M23.98,149.72l0.33,0.26C24.18,149.65,24.06,149.49,23.98,149.72z"/>
					<path class="st0" d="M44.28,252.51c0.05-1.34,0.4-2.95-0.3-2.39l-0.57,0.73C43.95,251.42,44.17,251.98,44.28,252.51z"/>
					<path class="st0" d="M22.85,198.34c-0.08,0.12-0.17,0.24-0.25,0.36c0.3,0.27,0.61,0.52,0.89,0.74
						C23.27,199.11,23.05,198.73,22.85,198.34z"/>
					<path class="st0" d="M19.23,197.7l0.5-1.61C19.55,196.46,19.39,196.97,19.23,197.7z"/>
					<path class="st0" d="M39.92,114.16l-0.21-1.31C38.88,114.15,39.62,113.82,39.92,114.16z"/>
					<path class="st0" d="M79.34,285.17c-0.68-0.78-1.29-1.28-1.86-1.67C78.24,284.53,78.71,285.64,79.34,285.17z"/>
					<path class="st0" d="M33.92,149.25c0.01-0.5-0.09-0.75-0.28-0.8C33.62,148.96,33.68,149.27,33.92,149.25z"/>
					<path class="st0" d="M75.06,282.06c0.1,0.16,0.22,0.29,0.33,0.44c0.68,0.25,1.36,0.51,2.08,1
						C76.92,282.74,76.19,282.05,75.06,282.06z"/>
					<path class="st0" d="M132.52,42.59c0.1,0.01,0.2-0.01,0.29,0.01C132.8,42.48,132.68,42.51,132.52,42.59z"/>
					<path class="st0" d="M166.79,46.9c-0.32,0.03-0.82-0.01-1.3-0.04C165.72,46.94,166.11,46.97,166.79,46.9z"/>
					<path class="st0" d="M98.95,293.6C99.65,293.8,99.09,293.55,98.95,293.6L98.95,293.6z"/>
					<path class="st0" d="M101.14,298.03c-0.18,0.04-0.34,0.12-0.42,0.3C100.85,298.16,100.99,298.07,101.14,298.03z"/>
					<path class="st0" d="M65.94,282.55c-0.02-0.01-0.03-0.02-0.05-0.04C65.98,282.78,65.96,282.73,65.94,282.55z"/>
					<path class="st0" d="M99.83,294.35c-0.22-0.19-0.48-0.39-0.78-0.56C99.17,293.9,99.4,294.08,99.83,294.35z"/>
					<path class="st0" d="M99.84,293.91c0.22,0.12,0.4,0.21,0.56,0.3C100.53,294.11,100.49,293.99,99.84,293.91z"/>
					<path class="st0" d="M97.99,293.29c0.39,0.14,0.74,0.3,1.06,0.49c-0.11-0.1-0.15-0.17-0.11-0.18
						C98.75,293.54,98.46,293.46,97.99,293.29z"/>
					<path class="st0" d="M78.98,75.8c0.06-0.01,0.11-0.03,0.18-0.04C79.54,75,79.31,75.26,78.98,75.8z"/>
					<path class="st0" d="M27.58,238.98c0.02,0.03,0.05,0.04,0.07,0.07c0-0.04-0.01-0.09-0.01-0.12L27.58,238.98z"/>
					<path class="st0" d="M26.04,236.55c1.41,0.76,1.51,1.44,1.6,2.37l2.03-1.75C28.47,236.98,27.26,236.77,26.04,236.55z"/>
					<path class="st0" d="M31.39,130.62l-1.58,1.44c-0.11-2.7,1.07-4.09-0.74-2.88c1.17,0.73,0.35,2.48-0.4,4.26
						c-0.69,1.81-1.38,3.63-0.18,4.27l-1.03,0.98c0.17-0.33,0.04-0.45,0.21-0.78c-1.09,0.92-0.82,1.55-0.48,2.29
						c0.34,0.74,0.75,1.59,0.05,3.06c-0.57,0.99-1.2,1.61-1.25,0.77l-0.2,2.61c-0.29,0.67-0.68,0.36-0.39-0.32
						c-0.34,1.24-0.76,2.46-1.02,3.72l-0.07-0.05c0.26,0.66,0.55,2.04,0.66,2.7c-0.64,0.83-0.15-0.55-0.54-0.41l0.06,2.22
						c-0.91,0.65-1.1-1.23-0.6-2.63c-3.14,1.19,0.16,1.88-2.49,5.65c0.03-0.69,0.13-1.36,0.19-2.05c-1.89,0.88-1.67,2.58-3.08,4.65
						c0.61-0.46,3.32-3.98,3.49-1.54c-0.33,0.59-0.61,1.42-0.33,2.75c-0.95-0.19-0.97,1.06-1.23,2.57l-1.24-0.34
						c0.02,1.71,0.67,1.69,1.1,2.75c-0.39,1.8-1.43,2.02-2.32,2.33c-0.63,2.91,1.87-1.79,1.6,1.71c-0.42,1.18-0.56,2.22-0.56,3.33
						c0.05,1.12,0.28,2.31,0.54,3.79c-0.58,1.66-0.75-0.37-1.17,0.21l0.89,1.6c-0.06,0.37-0.36,0.22-0.51,0.15
						c0.29,1.3,1.27,0.2,1.45,2.21c0.66,0.31,0.1,1.29-0.41,2.53c-0.52,1.24-1.03,2.75-0.26,3.99c-0.38,0.6-0.78-0.3-1.28-0.13
						c0.95,3.41,0.71,2.93,2.21,5.67l-0.76,2.39c0.9-1.77,2.11,0.41,3.11,2.25c0.44-0.63,0.83-1.16,1.01-1.52
						c0.27,0.99,0.5,1.98,0.85,2.96c-0.18,0.38-0.64,0.11-1.22-0.35c0.12,0.2,0.25,0.39,0.36,0.53c-0.37,1.11-1.16,0.61-1.94-0.12
						c0.22-0.39,0.44-0.77,0.7-1.15c-0.8-0.7-1.69-1.37-2.43-1.17c0.15,0.19,0.29,0.57,0.38,0.99c-0.22-0.19-0.41-0.3-0.53-0.2
						c-0.13,0.11,0.15,0.42,0.51,0.9l-1.36,0.8l0.58,0.13l-0.51,4.14c0.43,0.69,0.89,1.35,1.36,2.02c0.23,0.33,0.47,0.67,0.71,1.01
						c0.26,0.34,0.52,0.69,0.77,1.05c1.01,1.44,1.94,3.07,2.57,5.25c-1.2-0.93-1.72,0.05-2.95,0.2c1.1-1.45-1.09-3.44-1.19-5.86
						c0.05,1.25-0.57,1.06-0.83,0.77l1.83,4.06c-1.02,0.07-0.61,1.02-0.85,2.2c0.94-0.6,1.33,0.14,1.74,1.2
						c0.39,1.06,0.68,2.47,1.16,3.24c-0.63,0.25-1.39-0.02-1.68-2.13c-0.98,2.61,2.94,2.46,2.16,4.96c-0.12-0.5-0.08-0.79-0.46-0.92
						c0.42,0.52,0.65,1.53,0.73,2.33c0.1,0.8,0,1.41-0.38,1.15l-0.15-0.49c0.35,1.68,1.05,4.21,1.89,6.31
						c0.87,2.09,2.02,3.68,2.89,3.65c-0.2,0.11-2.09,0.25-2.48,0.16c1.24,0.66,2.48,1.31,3.71,1.92c1.24,0.62,2.42,1.23,3.72,1.77
						c-1.56,0.04-4,3.26-5.86,0.9c0.09,0.85,0.3,1.88,1.45,3.28c-0.03-0.6,1.4-2.09,1.83-1.44c-0.68,2.55-0.24,1.66-0.48,4.61
						c-0.04-0.9,2.4-0.98,2.86,0.23c-0.4-0.04-2.01,1.07-2.42,0.72c1.15,0.68,2.35,1.32,3.51,1.96c-0.73-0.54-1.77,0.72-2,1.68
						c0.23-0.51,1.28,2.58,1.89,3.27l-0.19-1.5c0.68,1.76,1.88,2.16,3.06,2.52c1.18,0.36,2.37,0.68,3.26,2.25
						c-0.62-0.12-3,0.58-2.24,2.35c0.72,0.05,2.34,0.14,4.2,0.34c1.84,0.23,3.78,0.65,5.03,1.62l-0.17,0.88l0.99,0.73l1.06,0.66
						c-1.18,0.02-3.07-0.28-5.03-0.77c-1.96-0.47-4-1.13-5.3-1.71c0.4,1.44-0.41,0.76,0.89,2.45c-0.06,0.97-1.45-0.4-1.86-0.9
						l2.64,4.3c0.47-0.5,1.29,0.08,2.12,0.64c0.87,0.53,1.71,1.08,2.08,0.65c-1.57-1.02-2.96-2.21-4.4-3.39
						c0.48-0.49,1.7-0.42,3.02,0.1c1.28,0.56,2.82,1.43,3.84,2.8c0.17,1.01-2.25,1.06-2.55,1.4c0.66,0.05,2.84,1.93,2.81,2.39
						l-1.51-0.64c0.46,0.91,1.31,1.22,2.12,1.62c0.83,0.38,1.62,0.83,1.99,2.12c0.51,0.62,0.53,2.94,1.19,2.45
						c0.07-2.03,3.25-5.59,4.62-5.86c0.06,0.13,0.53,1.06,1.01,2.13c0.5,1.04,1.01,2.22,1.11,2.78c0.2,1.76-3.34,0.91-3.19,2.4
						c0.28-0.24,1.12-0.11,1.45-0.03c0.43,0.78-1,0.64,0.5,1.7c1.1-0.86,2.8,2.41,1.4-0.35c1.61,0.81,1.29,1.39,2.98,2.61
						c0.02-1.09,3.27-1.28,4.89-0.63c-0.28,0.22-0.23,0.82-0.19,1.1c2.84,2.12,4.12,3.66,6.96,5.4c0.09,0.44,1.28,1.6,0.39,1.76
						c0.54,0.04,1.15-0.13,2.06,0.34c1.15,2.01-2.09-0.98-1.47,1c0.51-0.62,2.87,0.38,4.39,0.64c0.19-1.29-2.84-1.83-4.36-2.16
						c0.85-1.46,3.91-1.7,7.27-0.8c2.58,0.89,0.53,1.52,1.06,1.52c2.2,1.29,3.5,1.12,4.65,0.97c1.15-0.14,2.12-0.22,3.77,1.18
						c1.08,1.67-0.8,1.99-0.78,2.85c-2.21-0.54-2.82-2.05-4.19-2.66l1.45,1.26c-0.79,0.01-2.26-0.37-2.84-1.02
						c0.42,0.75,2.36,1.76,4.62,2.81c2.26,1.08,4.86,2.16,6.56,3.31c0.79-0.07,2.07-0.01,1.68-0.61c-0.41-0.1-0.82-0.19-1.23-0.3
						c-0.76-1.21,2.62-0.29,1.29-1.22c0.89,0,1.85-0.06,2.83,0.03c0.99,0.07,2.01,0.3,3.03,0.9l0.04,1.3
						c0.06-0.35-1.22-1.17-1.96-1.03c1.07-0.18,2.91,2.7,4.41,1.48l-1.31-1.3c1.77-0.08,4.05-0.78,5.91,0.1
						c-0.58-1.4-0.5,0.04-1.5-1.72c0.36,1.02-0.87,0.65-2.02,0.32c-1.14-0.35-2.2-0.69-1.51,0.5c-0.92-2-2.24-1.44-3.59-3.39
						c-0.08,0.39,0.38,0.96-1.14,0.2c-0.11,0.08-0.33,0.16-0.47,0.21c-0.04-0.03-0.06-0.04-0.1-0.07c0.03,0.03,0.05,0.05,0.07,0.08
						c-0.09,0.03-0.1,0.04,0.03,0.03c0.32,0.31,0.55,0.62,0.6,0.88c-1.11,0.58-3.67-0.39-4.7-0.31c-0.88-0.56,0.57-0.27,0.21-0.88
						l-1.55,0.16c0.21-0.89-1.91-2.43,0.49-1.99l-1.95-0.87c-0.96-0.96-2.44-1.86-3.57-1.97c-0.82-0.61-2.73-0.21-1.63-0.46
						c-1.1-0.31-2.17-0.67-3.27-1l0.07-0.21c-2.89-1.62-6.82-1.93-9.24-5.3c-1.07-0.38-2.21-0.76-3.63-1.99l0.12-0.85
						c-1.36-0.54-3.07-3.03-4.02-2.73c-0.01-1.29-1.3-2.38-2.78-3.42c-1.47-1.04-3.16-2.03-3.95-2.99l-0.74,0.7
						c-1.24-1.16-2.61-2.06-4.41-3.25l-0.54,0.73c-1.87-0.76-2.73-3.93-4.68-6.03c0.39-0.07,0.8,0.54,0.98,1.06
						c-0.18-0.98-0.63-1.74-1.23-2.4c-0.59-0.66-1.24-1.3-1.95-1.87c-1.38-1.18-2.88-2.3-3.15-4.01c-0.68-0.49-0.89-1.04-0.98-1.63
						c0.04,0.06,0.09,0.11,0.14,0.14c-0.03-0.07-0.09-0.18-0.16-0.28c-0.05-0.38-0.08-0.78-0.16-1.18c-0.01,0.39,0,0.76,0.07,1.03
						c-0.33-0.51-0.91-1.23-1.57-1.89l0.63-0.82c-0.05-0.06-0.08-0.11-0.13-0.16c-0.15-0.92-0.77-0.38-1.15,0.39
						c-0.38-0.31-0.76-0.57-1.13-0.74c1.01-1.38-1.56-1.88-0.55-3.53c-0.5-0.08-1.15-1.03-1.91-1.92c-0.38-0.44-0.78-0.87-1.2-1.18
						c-0.39-0.32-0.8-0.5-1.24-0.44c0.19-0.12,0.18-0.42,0.39,0.04c-0.23-1.03-0.45-2.04-1.26-2.7l0.96-0.88l-2.4-1.43
						c0.15-1.54,0.35-2.2,1.75-1.31c-2.5-2.51-1.4-2.27-3.69-4.41l0.79-0.13c-0.35-0.92-1.9-2.1-1.46-2.87
						c0.42-1.3-0.27-3.95-1.09-7.01c-0.38-1.54-0.67-3.22-0.94-4.85c-0.23-1.64-0.47-3.24-0.29-4.71c-2.13,1.48,0.63-2.78-1.18-2.71
						c0.49-0.41,0.68-1.23,1.3-0.4c-0.49-1.38-0.43-2.49-0.49-3.45c0.01-0.98-0.1-1.82-0.95-2.74c0.52-0.38,0.86,0.53,1.16,0.21
						c-0.14-0.22-0.56-0.86-0.26-1.19c0.3-0.32,0.5,0.37,0.78,0.8c-0.36-2.89-2.08-3.06-3.69-3.16c0.59-1.56,0.47-2.3-0.61-3.34
						c0.5-0.56,1.02-1.45,1.27,0.38c0.04-1.05,0.55-6.35-0.73-6.45c0.31-0.33,0.12-1.46-0.02-1.73c0.13-2.34,0.26-2.54,0.19-4.84
						L25.39,185c-1.5-0.97-0.35-1.94-0.35-3.8l0.15,0.06c1.47-4.16-0.37-1.89,1.24-5.95l-0.97,0.12c-0.5-0.15-0.66-0.46-0.62-0.86
						c0.06-0.4,0.33-0.91,0.65-1.47c0.63-1.12,1.46-2.46,1.24-3.72l-0.67,0.79c-0.49-1.45,3.26-3.24,3.84-4.44
						c0.24-0.25,0.19,0.49,0.24,0.91c1.9-3.11-1.14-0.66-0.9-3.24c0.76-0.32,1.56,0.94,2.04-0.7c0.36-0.36,0.07-1.69-0.07-3.2
						c-0.06-1.48,0.04-3.15,0.98-4.11c-0.64,0.35-1.29,0.72-1.34-0.54c0.16-0.91,0.97-1.97,1.59-3.05c0.7-1.06,1.21-2.13,0.71-3.18
						c0.21-0.17,0.37-0.21,0.5-0.18c0.08-1.45,0.8-4.56,0.37-5.66c1.8,0,2.26-2.14,2.65-4.19c0.34-2.06,0.83-3.91,2.18-3.25
						l1.76-3.95l0.23,0.24c0.67-1.2,1.04-2.07,1.17-2.81c0.13-0.74,0.05-1.34-0.03-1.95c0.5-0.46,0.52,0.09,0.63,0.21
						c1.26-1.61,1.91-2.52,2.29-3.49c0.42-0.95,0.58-1.96,0.86-3.81l1.03,0.23c0.01-0.54,1.12-1.58,2.38-2.95
						c1.34-1.33,2.82-2.99,3.51-4.94c0.07,0.1,0.17,0.28,0.1,0.62c0.78-2.2,3.07-3.83,4.78-5.42c1.7-1.6,3.06-2.99,2.23-4.79
						l1.28-2.83c-2.75,2.73-0.79-1.47-2.29-0.67c0.86-1.3,3.41-2.26,2.32-0.72l-0.33,0.1c0.49,0.9,1.36,0.07,2.31-0.78
						c0.95-0.86,1.89-1.81,2.31-1.34c1.31-1.36,2.58-2.74,4-3.95c1.41-1.23,2.83-2.42,4.24-3.59c2.89-2.26,5.73-4.48,8.51-6.66
						l-1.57-0.61l1.98-1.5c0.72-0.15,1.39,0.34-0.01,1.4c1.24,0.06,1.85-2.4,1.7-2.68c3.05-1.71,0.01,2.19,0.86,1.55l1.04-0.99
						l-0.36,0.07c0.52-1.21,0.24-1.75,1.98-2.97c1.25-0.57,1.09,0.31,1.55,0.04c0.06,0.08,0.23,0.02,0.67-0.45l2.56-1.76l-1.67-0.19
						c0.76-1.31,2.43-1.65,0.47-1.9c1.46,0.22,3.96-1.28,6.27-2.87c2.35-1.54,4.56-3.11,5.27-3.2c1.17-1.78,2.86-2.72,4.95-3.84
						c-0.63,0.09-1.6-0.85,0.26-1.75c0.35,1.35,1.3,1.13,2.46,0.67c1.17-0.44,2.57-1.06,3.74-0.61c-0.94-0.2,0.27-0.99,1.4-1.72
						c1.12-0.73,2.13-1.48,0.69-1.77c1.62-0.58,0.55,0.85,1.97,0.83c3.17-2.71,8.27-3.16,12.73-5.16c-0.05-0.36-1.01-0.56-0.2-1.44
						l3.05,0.81c0.86-0.46,0.2-2.26,2.28-1.6c-0.33-0.21-0.82-0.53-0.23-0.82c4.87-0.65,9.54-2.09,14.4-2.94
						c4.82-0.85,9.9-1.06,14.51,0.86c-1.23-0.79-0.38-0.78,0.6-0.73c-0.63-0.22,0.08-0.87-0.01-1.35c1.32,0.56,2.62,1.07,3.86,1.75
						c0.45-0.6,1.52-0.46,2.55-0.32c1.02,0.19,1.99,0.42,2.34-0.15l-1.3-0.06c0.98-0.54,0.59-1.48-0.04-2.53
						c-0.62-1.03-1.49-2.08-1.21-3.02c-0.58,0.34-1.18,0.3-1.82,0.09c-0.64-0.22-1.32-0.62-2.06-0.94
						c-1.47-0.64-3.21-1.32-4.96-0.09c-0.74-0.41,0.66-0.6,0.28-1.06c-0.9,0.82-1.94,0.91-3.88,0.59l0.22-0.21
						c-1.36,0.1-2.53,0.14-3.62,0.12c-1.08,0-2.08,0.03-3.11,0c-1.03-0.03-2.08-0.07-3.25-0.03c-1.17,0.05-2.5,0.03-4.03,0.21
						l0.62,0.84c-1.31,0.13-1.64-0.1-2.29-0.21c-1.19,1.71,3.63-0.65,2.58,1.18c-1.01-0.76-3.3-0.38-5.47,0.13
						c-1.09,0.25-2.16,0.49-3.07,0.56c-0.91,0.08-1.64,0.01-2.08-0.44c-1.94,0.57,0.87,0.88-1.06,1.45L134,42.96l-0.26,0.87
						c-1.29,0.26-2.14-0.2-2.35-0.66c0.32-0.05,0.82-0.43,1.14-0.58c-1.85-0.09-4.53,1.78-5.13,1.81c0.64-0.13,1.29-0.23,1.95-0.32
						c-4.98,2.34-11.44,4.33-15.58,7.81l0.56,0.22c-3.18,2.53-3.07,1.03-6.74,3.47l0.08-0.17c-0.53,0.83-1.42,1.61-2.47,2.17
						c0.69-1.01-2.3,0.17-1.35-1.06c-3.26,2.97-1.51,1.65-3.04,4.57l-0.94-0.28c-0.46,1.09-0.34,1.43-2.06,2.75
						c1.15-1.49-1.78-0.2-0.55-1.99c-1.18,0.27-2.08,0.73-2.81,1.24c-0.72,0.52-1.25,1.12-1.73,1.64c-0.97,1.05-1.72,1.84-3.27,1.47
						c-0.54,2.87,3.9-1.31,3.19-0.28c1.18,0-0.55,2.24-1.83,2.88c-1.22,0.77-3.55-0.73-6.48,1.52c0.3-0.21,0.23-0.35,0.52-0.56
						c-1.42,0.41-1.73,2.18-3.61,2.52c0.03,1.57-1.75,1.33-0.98,2.74c0.8-0.79,1.57-1.63,2.41-2.38c-1.28,1.48-1.47,4.08-4.47,5.34
						c-0.02-0.4,0.44-1.31,0.79-1.9c-1.01,0.22-1.18,1.35-2.22,1.58c-0.8-1.39,2.96-2.84,3.8-5.08c-1.19,0.1-2.31,3.35-2.58,1.36
						c0.11,1.32-0.64,1.83-1.53,2.38c-0.9,0.54-1.92,1.14-2.31,2.6l-0.49-0.83c-0.2,0.38-0.52,1.26-1.08,1.72l0.18-1.8
						c-0.83,2.13-3.56,1.91-4.64,3.63c3.05-2.73,1.46,0.24,3.21-0.38c-0.73,1.06-1.33,1.59-1.88,1.87c-0.54,0.29-1.04,0.3-1.58,0.31
						c-1.07,0.02-2.27,0.03-4.16,2.16c0.46-0.63,2.47-1.58,1.91-0.43c-0.91,0.6-2.19,1.32-3.02,1.43c-2.5,2.81,1.08,0.26,0.38,1.82
						c-1.7,0.1-0.93,1.66-1.79,3.09l-0.7-0.66c-3.38,2.66,0.66,2.17-2.46,4.45c0.02-0.71,0.06-1.4,0.1-2.09
						c-0.38,0.55-0.74,1.13-1.09,1.71l-0.54-1.05c-0.83,2.19-1.43,2.55-3.06,3.96c0.84,0.07,1.15,1.35-0.06,2.78
						c-1.25,0.62-0.26-1.15-1.82,1.02c-0.08-0.84-0.29-1.88,1.17-2.18c-0.16-0.29-0.07-0.84-0.23-1.13
						c-1.45,0.6-2.34,2.62-2.94,3.38c0.26-0.27,0.58-0.59,0.83-0.68l-1.36,3.87c-0.66,0.26-0.6-0.3-0.52-0.85
						c-0.41,0.68-0.39,1.38-1.04,2.33c-0.44-0.71-1.13-1.14-0.4-2.66l-0.81,1.73l-0.74,1.77c-0.42,0-1.87,1.01-1.82,0.44
						c-1.58,1.44-1.75,4.97-3.67,6.98c0.05,0.2,0.02,0.52-0.2,1.07c-0.77,1.04-1.66,1.91-2.45,2.92c-0.79,1.01-1.39,2.22-1.68,3.81
						l-2.08,0.83c-0.9,2.24,2.7-1.18,1.22,2.53c-0.5,1.32-0.86,1.42-1.24,1.27c-0.37-0.16-0.74-0.57-1.13-0.21
						c0,1.6,0.23,4.4-1.94,6.23C30.64,131.9,31.13,131.38,31.39,130.62z M22.04,158.52c-0.04-0.3-0.15-0.77-0.17-1.19
						c-0.01-0.42,0.09-0.8,0.42-0.93C23.17,157.29,22.54,157.64,22.04,158.52z M21.35,202.68c-0.36-0.39-0.26-1.04,0.04-1.79
						C21.52,201.41,21.54,202,21.35,202.68z M91.29,291.29c-0.03,0-0.05,0.01-0.07,0.02C90.29,290.48,90.61,290.79,91.29,291.29z
						 M93.39,292.67c0.28-0.03,0.32-0.16,0.27-0.32c-0.25,0.16-0.77-0.04-1.33-0.35C92.39,292.29,92.62,292.58,93.39,292.67z
						 M89.32,75.99l-0.54,0.09C89.49,75.19,89.39,75.58,89.32,75.99z"/>
					<path class="st0" d="M19.65,197.79c0.16-0.17,0.34-0.22,0.52-0.27C20,197.31,19.81,197.32,19.65,197.79z"/>
					<path class="st0" d="M39.96,114.4c0.02-0.02,0.04-0.05,0.06-0.07c-0.02-0.07-0.06-0.13-0.1-0.17L39.96,114.4z"/>
					<path class="st0" d="M55.4,279.22c-0.33-0.46-0.44-0.79-0.47-1.06C54.75,278.32,54.8,278.64,55.4,279.22z"/>
					<path class="st0" d="M106.14,295.59l-1.56-0.22c0.73,0.18,0.93,0.46,1.25,0.72C105.86,295.86,105.67,295.46,106.14,295.59z"/>
					<path class="st0" d="M118.23,304.54c0.26-0.08,0.5,0.07,0.75-0.02l0-0.45C117.99,303.94,117.22,304.18,118.23,304.54z"/>
					<path class="st0" d="M106.63,299.07c-0.1,0.81,0.94,0.82,2.06,0.98c-0.07-0.01-0.13-0.03-0.19-0.05
						C109.11,299,107.87,299.04,106.63,299.07z"/>
					<path class="st0" d="M108.95,300.09c0.35,0.05,0.69,0.11,1.01,0.23C110.2,299.92,109.58,300.13,108.95,300.09z"/>
					<path class="st0" d="M96.49,293.36c0.41,0.39,0.69-0.84,0.84-0.43C98.25,292.19,93.63,292.81,96.49,293.36z"/>
					<polygon class="st0" points="106.78,301.89 106.65,300.82 105.82,301.42 					"/>
					<path class="st0" d="M98.42,298.43c0.54,0.3,1.08,0.6,1.62,0.87c0.03-0.17,0.28-0.19,0.57-0.17
						C99.56,298.75,98.48,298.13,98.42,298.43z"/>
					<path class="st0" d="M100.62,299.13c0.55,0.21,1.08,0.37,1.44,0.32C101.75,299.36,101.1,299.17,100.62,299.13z"/>
					<polygon class="st0" points="104.29,301.48 103.83,301.12 102.62,300.67 					"/>
					<path class="st0" d="M80.66,290.24l-1.89-0.69c-0.34,0.2,0.03,0.66,0.75,0.88C80.06,290.44,80.77,290.67,80.66,290.24z"/>
					<path class="st0" d="M84.82,295.43c-0.4-0.42-0.34-0.64-0.47-1.07l-0.6,1.09L84.82,295.43z"/>
					<path class="st0" d="M79.43,293.02c-0.34,0.21-3.07-0.51-0.76,0.63C79.02,293.44,80.94,294.14,79.43,293.02z"/>
					<polygon class="st0" points="55.28,274.58 55.67,274.91 56.98,273.35 					"/>
					<path class="st0" d="M34.43,256.31c0.89,2.39,1.38-0.14,2.04,2.09c0.71,0.24-0.53-1.82,0.13-1.53
						C35.39,255.87,35.23,255.04,34.43,256.31z"/>
					<path class="st0" d="M36.6,256.87c0.19,0.16,0.41,0.32,0.66,0.48C36.93,257.05,36.74,256.93,36.6,256.87z"/>
					<polygon class="st0" points="171.78,48.69 173.05,49.42 172.31,48.55 					"/>
					<path class="st0" d="M174.75,47.82l0.02,1.33l1.12-0.95C175.55,48.19,174.92,48.16,174.75,47.82z"/>
					<path class="st0" d="M18.57,162.29l0.28,0.18c0.38-0.18,0.48-0.54,0.69-1.26L18.57,162.29z"/>
					<polygon class="st0" points="25.46,141.7 25.32,142.04 26.64,141.8 					"/>
					<path class="st0" d="M31.62,124.52c-0.43,0.62-0.55,1.54-0.93,2.19C31.2,125.14,33.01,125.03,31.62,124.52z"/>
				</g>
			</g>
		</g>
	</g>
</g>
<g>
	<path class="st1" d="M203.6,22.42c-0.34,0.14-0.85,0.28-1.51,0.41c-0.74,0.14-1.67,0.28-2.81,0.42c-1.13,0.13-2.05,0.22-2.75,0.26
		c-0.05,0.77-0.13,3.01-0.22,6.7c-0.09,3.69-0.14,6.42-0.16,8.18c0.97-0.02,2.25-0.08,3.83-0.19c1.33-0.07,2.08-0.11,2.24-0.11
		c0.32,0,0.62,0.07,0.88,0.22c0.26,0.14,0.39,0.37,0.39,0.68c0,0.25-0.04,0.43-0.12,0.54c-0.08,0.11-0.26,0.16-0.53,0.16
		c-0.11,0-0.4-0.03-0.89-0.08c-0.36-0.07-0.67-0.11-0.92-0.11c-0.85,0-2.54,0.05-5.08,0.16c-0.09,0.13-0.19,0.22-0.31,0.28
		c-0.12,0.06-0.22,0.09-0.31,0.09c-0.11,0-0.22-0.03-0.32-0.08c-0.11-0.05-0.17-0.13-0.19-0.24l-1.21,0.13
		c-1.4,0.18-2.45,0.27-3.13,0.27c-0.59,0-1.04-0.13-1.35-0.38c-0.16-0.14-0.24-0.41-0.24-0.78c0-0.11,0.06-0.24,0.18-0.4
		c0.12-0.16,0.24-0.24,0.36-0.24c0.04,0,0.18,0.05,0.42,0.15c0.24,0.1,0.47,0.15,0.69,0.15c0.67,0,1.65-0.04,2.94-0.11l1.24-0.08
		l0.16-3.97c0.02-0.41,0.04-0.79,0.05-1.12c0.02-0.33,0.03-0.62,0.03-0.85l0.27-8.83c-1.87,0.13-2.76,0.19-2.67,0.19
		c-1.84,0.14-2.92,0.22-3.24,0.22c-0.31,0-0.59-0.1-0.86-0.3s-0.4-0.45-0.4-0.76c0-0.22,0.06-0.39,0.18-0.51s0.27-0.19,0.47-0.19
		c0.14,0,0.29,0.01,0.43,0.03c0.14,0.02,0.29,0.04,0.43,0.05c0.45,0.09,0.88,0.13,1.3,0.13c0.4,0,1.15-0.03,2.27-0.09
		c1.12-0.06,1.86-0.1,2.24-0.12c0.02-0.23,0.1-0.43,0.24-0.58c0.14-0.15,0.33-0.23,0.57-0.23c0.11,0,0.2,0.07,0.27,0.22
		c0.07,0.14,0.11,0.31,0.11,0.49c1.04-0.04,2.92-0.27,5.64-0.7c0.22-0.04,0.45-0.14,0.72-0.3c0.26-0.16,0.41-0.24,0.45-0.24
		c0.18,0,0.35,0.07,0.51,0.22c0.16,0.14,0.24,0.32,0.24,0.54C204.11,22.04,203.94,22.28,203.6,22.42z"/>
	<path class="st1" d="M228.57,42.48c-0.56,1.15-1.22,2.09-1.97,2.81c-0.77,0.74-1.58,1.34-2.42,1.8s-1.56,0.69-2.17,0.69
		c-0.34,0-0.59-0.09-0.73-0.26c-0.14-0.17-0.22-0.37-0.22-0.61c0-0.22,0.41-0.47,1.22-0.76c1.22-0.4,2.36-1.06,3.4-2
		c0.81-0.72,1.4-1.54,1.78-2.46c0.38-0.92,0.57-1.85,0.57-2.81c0-1.08-0.07-2.07-0.2-2.97c-0.13-0.9-0.35-2.01-0.63-3.32
		c-0.32-1.39-0.55-2.56-0.68-3.54c-0.31,0.83-0.78,1.83-1.42,3c-0.64,1.17-1.4,2.29-2.28,3.38c-0.83,1.03-1.58,1.79-2.25,2.29
		c-0.67,0.5-1.33,0.76-1.96,0.76c-0.54,0-0.94-0.21-1.2-0.63c-0.26-0.42-0.39-1-0.39-1.74c0-1.22,0.38-2.66,1.13-4.32
		c0.76-1.66,1.7-3.08,2.83-4.27c1.13-1.19,2.25-1.78,3.35-1.78c0.38,0,0.67,0.13,0.88,0.4s0.31,0.59,0.31,0.97
		c0,0.49-0.1,0.73-0.3,0.73c-0.05,0-0.12-0.07-0.2-0.2c-0.08-0.14-0.18-0.26-0.28-0.36c-0.11-0.11-0.23-0.16-0.35-0.16
		c-0.92,0-1.85,0.51-2.79,1.54c-0.95,1.03-1.73,2.23-2.35,3.6c-0.62,1.38-0.93,2.51-0.93,3.39c0,0.49,0.07,0.84,0.2,1.05
		c0.13,0.22,0.35,0.32,0.63,0.32c0.43,0,0.95-0.25,1.57-0.76c0.61-0.5,1.34-1.3,2.19-2.38c0.76-0.95,1.44-2.07,2.07-3.33
		c0.62-1.27,1.09-2.48,1.42-3.63c0.04-0.11,0.09-0.2,0.18-0.27s0.18-0.11,0.28-0.11c0.16,0,0.33,0.05,0.5,0.15
		c0.17,0.1,0.26,0.2,0.26,0.31c0,0.07-0.01,0.15-0.04,0.23c-0.03,0.08-0.05,0.13-0.07,0.15c0.13,0.99,0.42,2.53,0.89,4.62
		c0.34,1.48,0.6,2.71,0.77,3.71c0.17,1,0.26,1.98,0.26,2.93C229.41,40.05,229.13,41.33,228.57,42.48z"/>
	<path class="st1" d="M242.38,28.11c-0.23,0.21-0.42,0.31-0.58,0.31c-0.13,0-0.25-0.05-0.36-0.16c-0.12-0.11-0.25-0.26-0.39-0.46
		c-0.13-0.18-0.29-0.33-0.5-0.46c-0.21-0.13-0.42-0.19-0.63-0.19c-0.52,0-1.22,0.69-2.11,2.07c-0.88,1.38-1.75,3.11-2.59,5.2
		c0.02,0.41,0.05,0.94,0.09,1.57c0.04,0.63,0.08,1.1,0.09,1.4l0.08,1.08c0,0.25-0.05,0.47-0.16,0.66c-0.11,0.19-0.31,0.28-0.59,0.28
		c-0.31,0-0.5-0.41-0.59-1.23c-0.09-0.82-0.14-2.01-0.16-3.58c-0.02-0.4-0.03-0.96-0.04-1.7c-0.01-0.74-0.03-1.62-0.07-2.65
		c-0.05-1.55-0.08-2.65-0.08-3.32c0-0.41,0.25-0.62,0.76-0.62c0.31,0,0.49,0.13,0.55,0.39c0.06,0.26,0.09,0.76,0.09,1.5v4.29
		c0.54-1.39,1.12-2.58,1.75-3.59c0.63-1.01,1.25-1.78,1.85-2.31c0.6-0.53,1.14-0.8,1.61-0.8c0.4,0,0.77,0.09,1.13,0.27
		c0.36,0.18,0.65,0.41,0.86,0.69c0.22,0.28,0.32,0.54,0.32,0.8C242.72,27.71,242.61,27.9,242.38,28.11z"/>
	<path class="st1" d="M257.46,37.58c0.13,0.13,0.19,0.25,0.19,0.34c0,0.22-0.09,0.46-0.27,0.74c-0.18,0.28-0.36,0.42-0.54,0.42
		c-0.31,0-0.54-0.19-0.7-0.57c-0.16-0.38-0.24-0.82-0.24-1.32c0-0.43,0.03-1.73,0.08-3.89l0.03-1.03c0-0.41-0.11-0.71-0.32-0.89
		c-0.81,1.37-1.57,2.56-2.27,3.56c-0.7,1.01-1.59,1.96-2.67,2.85s-2.21,1.34-3.4,1.34c-0.58,0-1.02-0.18-1.34-0.54
		c-0.32-0.36-0.47-0.83-0.47-1.4c0-0.72,0.32-1.71,0.97-2.96c0.65-1.25,1.48-2.52,2.48-3.81c1.01-1.29,2.02-2.34,3.02-3.17
		c0.67-0.54,1.2-0.9,1.59-1.09c0.4-0.19,0.75-0.28,1.05-0.28c0.29,0,0.58,0.09,0.89,0.27c0.31,0.18,0.57,0.43,0.78,0.76
		c0.22,0.32,0.32,0.69,0.32,1.11c0,0.56-0.15,1.09-0.46,1.59l0.46-0.14c0.2,0,0.31,0.24,0.35,0.73c0.02,0.29,0.04,0.87,0.07,1.76
		c0.03,0.88,0.05,1.61,0.07,2.19c0.02,0.59,0.04,1.17,0.05,1.73c0.02,0.56,0.04,1,0.05,1.32C257.26,37.32,257.34,37.45,257.46,37.58
		z M250.52,36.6c0.9-0.72,1.71-1.58,2.42-2.58s1.5-2.23,2.36-3.69c0.22-0.54,0.32-1.13,0.32-1.75c0-0.38-0.11-0.71-0.34-0.99
		c-0.23-0.28-0.53-0.42-0.9-0.42c-0.45,0-1.03,0.31-1.73,0.92c-0.81,0.68-1.67,1.6-2.56,2.74c-0.9,1.14-1.65,2.27-2.24,3.39
		c-0.59,1.12-0.89,2-0.89,2.65c0,0.54,0.25,0.81,0.76,0.81C248.69,37.68,249.62,37.32,250.52,36.6z"/>
	<path class="st1" d="M271.45,20.45c0,0.36-0.02,1.07-0.05,2.12c-0.04,1.05-0.05,2.11-0.05,3.17c0,2.05,0.04,4.14,0.14,6.28
		c0.09,2.13,0.16,3.53,0.22,4.2c0,0.11,0.01,0.23,0.03,0.35c0.02,0.13,0.04,0.24,0.05,0.35c0.07,0.5,0.11,0.81,0.11,0.92
		c0,0.18-0.13,0.35-0.39,0.51c-0.26,0.16-0.46,0.24-0.61,0.24c-0.2,0-0.33-0.08-0.39-0.23c-0.06-0.15-0.09-0.36-0.09-0.63
		c0-0.99,0.03-2.02,0.08-3.1l0.03-1.51c0-0.5-0.01-1.17-0.03-1.98c-0.02-0.82-0.05-1.51-0.08-2.07c-0.92,2.95-1.96,5.4-3.12,7.33
		c-1.16,1.94-2.42,2.9-3.77,2.9c-0.61,0-1.13-0.29-1.55-0.86c-0.42-0.58-0.63-1.4-0.63-2.48c0-1.42,0.48-2.97,1.44-4.64
		c0.96-1.67,2.06-3.11,3.29-4.32c1.23-1.21,2.15-1.81,2.74-1.81c0.58,0,0.86,0.19,0.86,0.57c0,0.25-0.08,0.54-0.26,0.88
		c-0.17,0.33-0.36,0.63-0.57,0.9s-0.33,0.41-0.36,0.41c-0.04,0-0.08-0.01-0.12-0.04c-0.04-0.03-0.07-0.06-0.07-0.09
		c0-0.09,0.04-0.24,0.13-0.46s0.14-0.36,0.14-0.43c0-0.09-0.01-0.15-0.03-0.19c-0.02-0.04-0.07-0.05-0.16-0.05
		c-0.38,0-1.06,0.52-2.04,1.55c-0.98,1.04-1.86,2.26-2.63,3.69c-0.77,1.42-1.16,2.75-1.16,3.97c0,0.43,0.09,0.84,0.27,1.21
		c0.18,0.38,0.48,0.57,0.89,0.57c1.31,0,2.53-1.11,3.66-3.33c1.13-2.22,2.1-4.75,2.93-7.57l-0.05-2.27c-0.05-2-0.08-3.06-0.08-3.19
		c0-1.08,0.04-1.85,0.13-2.32c0.04-0.18,0.08-0.31,0.12-0.38c0.04-0.07,0.14-0.11,0.28-0.11c0.18,0,0.36,0.06,0.54,0.18
		c0.18,0.12,0.27,0.27,0.27,0.47L271.45,20.45z"/>
	<path class="st1" d="M287.05,39.13c-0.16,0.16-0.39,0.24-0.67,0.24c-0.36,0-0.69-0.38-0.99-1.13c-0.3-0.76-0.48-1.54-0.55-2.35
		c-0.07-0.77-0.13-2.34-0.16-4.7c-0.02-0.38-0.03-0.76-0.03-1.15c0-0.39-0.01-0.72-0.03-0.99c-0.52,1.24-1.23,2.66-2.13,4.24
		c-0.9,1.58-1.8,2.94-2.71,4.08c-0.91,1.13-1.65,1.7-2.23,1.7c-0.59,0-0.99-0.31-1.17-0.95c-0.19-0.63-0.28-1.63-0.28-3
		c0-1.28,0.17-2.73,0.5-4.35s0.72-2.85,1.15-3.7c0.18-0.38,0.33-0.63,0.46-0.77c0.13-0.13,0.27-0.2,0.43-0.2
		c0.45,0,0.67,0.09,0.67,0.27c0,0.09-0.09,0.3-0.27,0.62c-0.49,0.9-0.91,1.98-1.27,3.24c-0.36,1.26-0.54,2.95-0.54,5.08
		c0,1.42,0.2,2.13,0.59,2.13c0.47,0,1.1-0.52,1.9-1.55c0.8-1.03,1.6-2.27,2.39-3.71c0.79-1.44,1.39-2.69,1.81-3.75
		c0.14-0.36,0.31-0.92,0.49-1.67c0.05-0.31,0.11-0.53,0.16-0.66c0.05-0.13,0.12-0.2,0.19-0.2c0.2,0,0.41,0.08,0.65,0.24
		c0.23,0.16,0.35,0.33,0.35,0.51c0,0.86,0.03,2.34,0.09,4.44c0.06,2.1,0.14,3.55,0.23,4.36c0.07,0.7,0.2,1.25,0.39,1.65
		c0.19,0.4,0.37,0.71,0.55,0.93c0.18,0.23,0.27,0.36,0.27,0.42C287.3,38.75,287.22,38.97,287.05,39.13z"/>
	<path class="st1" d="M302.34,37.58c0.13,0.13,0.19,0.25,0.19,0.34c0,0.22-0.09,0.46-0.27,0.74c-0.18,0.28-0.36,0.42-0.54,0.42
		c-0.31,0-0.54-0.19-0.7-0.57c-0.16-0.38-0.24-0.82-0.24-1.32c0-0.43,0.03-1.73,0.08-3.89l0.03-1.03c0-0.41-0.11-0.71-0.32-0.89
		c-0.81,1.37-1.57,2.56-2.27,3.56c-0.7,1.01-1.59,1.96-2.67,2.85s-2.21,1.34-3.4,1.34c-0.58,0-1.02-0.18-1.34-0.54
		c-0.32-0.36-0.47-0.83-0.47-1.4c0-0.72,0.32-1.71,0.97-2.96c0.65-1.25,1.48-2.52,2.48-3.81c1.01-1.29,2.02-2.34,3.02-3.17
		c0.67-0.54,1.2-0.9,1.59-1.09c0.4-0.19,0.75-0.28,1.05-0.28c0.29,0,0.58,0.09,0.89,0.27c0.31,0.18,0.57,0.43,0.78,0.76
		c0.22,0.32,0.32,0.69,0.32,1.11c0,0.56-0.15,1.09-0.46,1.59l0.46-0.14c0.2,0,0.31,0.24,0.35,0.73c0.02,0.29,0.04,0.87,0.07,1.76
		c0.03,0.88,0.05,1.61,0.07,2.19c0.02,0.59,0.04,1.17,0.05,1.73c0.02,0.56,0.04,1,0.05,1.32C302.14,37.32,302.21,37.45,302.34,37.58
		z M295.4,36.6c0.9-0.72,1.71-1.58,2.42-2.58s1.5-2.23,2.36-3.69c0.22-0.54,0.32-1.13,0.32-1.75c0-0.38-0.11-0.71-0.34-0.99
		c-0.23-0.28-0.53-0.42-0.9-0.42c-0.45,0-1.03,0.31-1.73,0.92c-0.81,0.68-1.67,1.6-2.56,2.74c-0.9,1.14-1.65,2.27-2.24,3.39
		c-0.59,1.12-0.89,2-0.89,2.65c0,0.54,0.25,0.81,0.76,0.81C293.56,37.68,294.5,37.32,295.4,36.6z"/>
	<path class="st1" d="M318.22,28.44c-0.26,0.16-0.73,0.29-1.42,0.38c-1.66,0.29-2.58,0.45-2.78,0.49l-1.75,0.3
		c0,0.94,0.01,1.92,0.04,2.94c0.03,1.03,0.07,1.93,0.12,2.7c0.07,1.04,0.2,1.85,0.38,2.4c0.18,0.56,0.28,0.87,0.3,0.94
		c0,0.18-0.11,0.35-0.34,0.5c-0.22,0.15-0.44,0.23-0.63,0.23c-0.11,0-0.2-0.03-0.27-0.09c-0.07-0.06-0.13-0.17-0.19-0.31
		c-0.11-0.25-0.21-0.72-0.31-1.4c-0.1-0.68-0.18-1.44-0.23-2.27c-0.05-0.74-0.09-1.6-0.12-2.58c-0.03-0.98-0.04-1.93-0.04-2.85
		c-1.01,0.16-2.04,0.36-3.11,0.59c-0.95,0.2-1.52,0.3-1.7,0.3c-0.22,0-0.42-0.06-0.61-0.19c-0.19-0.13-0.28-0.3-0.28-0.51
		c0-0.23,0.08-0.39,0.24-0.46c0.16-0.07,0.43-0.11,0.81-0.11c0.27,0,0.67-0.05,1.19-0.15c0.52-0.1,0.85-0.17,1-0.2
		c1.21-0.23,2.02-0.39,2.46-0.46c0-0.38-0.02-0.87-0.05-1.48c-0.04-0.83-0.05-1.46-0.05-1.89c0-0.7,0.02-1.25,0.07-1.63
		c0.04-0.39,0.13-0.73,0.26-1.04c0.14-0.36,0.41-0.54,0.81-0.54c0.16,0,0.27,0.03,0.32,0.08c0.05,0.05,0.08,0.15,0.08,0.3
		c0,0.11-0.04,0.42-0.13,0.95c-0.09,0.52-0.13,1.21-0.13,2.08c0,0.67,0.02,1.41,0.05,2.24l0.03,0.73c0.81-0.13,2.41-0.46,4.81-1
		c0.14-0.04,0.27-0.16,0.36-0.38c0.1-0.22,0.2-0.32,0.31-0.32c0.2,0,0.4,0.11,0.61,0.34c0.21,0.23,0.31,0.46,0.31,0.69
		C318.62,28.05,318.48,28.28,318.22,28.44z"/>
	<path class="st1" d="M331.82,32.44c0,0.32-0.24,1.04-0.72,2.13c-0.48,1.1-1.2,2.12-2.16,3.05s-2.15,1.4-3.55,1.4
		c-1.15,0-2.12-0.36-2.89-1.08c-0.77-0.72-1.16-1.83-1.16-3.32c0-1.4,0.32-2.79,0.97-4.17c0.65-1.38,1.49-2.5,2.54-3.38
		s2.12-1.31,3.24-1.31c0.67,0,1.23,0.15,1.69,0.45s0.69,0.73,0.69,1.28c0,0.63-0.36,1.24-1.07,1.84c-0.71,0.59-1.63,1.12-2.77,1.57
		c-1.13,0.45-2.3,0.77-3.51,0.97c-0.22,0.83-0.32,1.64-0.32,2.43c0,1.04,0.25,1.85,0.74,2.43c0.5,0.58,1.2,0.86,2.12,0.86
		c1.39,0,2.51-0.49,3.38-1.48c0.86-0.99,1.58-2.11,2.16-3.35c0.04-0.07,0.1-0.21,0.19-0.42c0.09-0.21,0.17-0.31,0.24-0.31
		C331.76,32.03,331.82,32.17,331.82,32.44z M328.81,27.12c-0.3-0.16-0.64-0.24-1.04-0.24c-0.68,0-1.34,0.23-1.97,0.67
		c-0.63,0.45-1.16,0.99-1.58,1.62c-0.42,0.63-0.7,1.19-0.82,1.67c0.83-0.09,1.7-0.32,2.62-0.7s1.69-0.79,2.31-1.24
		c0.62-0.45,0.93-0.82,0.93-1.11C329.25,27.51,329.11,27.28,328.81,27.12z"/>
	<path class="st1" d="M345.05,20.45c0,0.36-0.02,1.07-0.05,2.12c-0.04,1.05-0.05,2.11-0.05,3.17c0,2.05,0.04,4.14,0.14,6.28
		c0.09,2.13,0.16,3.53,0.22,4.2c0,0.11,0.01,0.23,0.03,0.35c0.02,0.13,0.04,0.24,0.05,0.35c0.07,0.5,0.11,0.81,0.11,0.92
		c0,0.18-0.13,0.35-0.39,0.51c-0.26,0.16-0.46,0.24-0.61,0.24c-0.2,0-0.33-0.08-0.39-0.23C344.03,38.21,344,38,344,37.73
		c0-0.99,0.03-2.02,0.08-3.1l0.03-1.51c0-0.5-0.01-1.17-0.03-1.98c-0.02-0.82-0.05-1.51-0.08-2.07c-0.92,2.95-1.96,5.4-3.12,7.33
		c-1.16,1.94-2.42,2.9-3.77,2.9c-0.61,0-1.13-0.29-1.55-0.86c-0.42-0.58-0.63-1.4-0.63-2.48c0-1.42,0.48-2.97,1.44-4.64
		c0.96-1.67,2.06-3.11,3.29-4.32c1.23-1.21,2.15-1.81,2.74-1.81c0.58,0,0.86,0.19,0.86,0.57c0,0.25-0.08,0.54-0.26,0.88
		c-0.17,0.33-0.36,0.63-0.57,0.9s-0.33,0.41-0.36,0.41c-0.04,0-0.08-0.01-0.12-0.04c-0.04-0.03-0.07-0.06-0.07-0.09
		c0-0.09,0.04-0.24,0.13-0.46s0.14-0.36,0.14-0.43c0-0.09-0.01-0.15-0.03-0.19c-0.02-0.04-0.07-0.05-0.16-0.05
		c-0.38,0-1.06,0.52-2.04,1.55c-0.98,1.04-1.86,2.26-2.63,3.69c-0.77,1.42-1.16,2.75-1.16,3.97c0,0.43,0.09,0.84,0.27,1.21
		c0.18,0.38,0.48,0.57,0.89,0.57c1.31,0,2.53-1.11,3.66-3.33c1.13-2.22,2.1-4.75,2.93-7.57l-0.05-2.27c-0.05-2-0.08-3.06-0.08-3.19
		c0-1.08,0.04-1.85,0.13-2.32c0.04-0.18,0.08-0.31,0.12-0.38c0.04-0.07,0.14-0.11,0.28-0.11c0.18,0,0.36,0.06,0.54,0.18
		c0.18,0.12,0.27,0.27,0.27,0.47L345.05,20.45z"/>
	<path class="st1" d="M370.37,39.85c-0.14,0.15-0.33,0.23-0.57,0.23c-0.18,0-0.33-0.04-0.46-0.12s-0.19-0.19-0.19-0.34l0.05-1.86
		c0.09-2.21,0.13-4.02,0.13-5.43c0-2.05-0.14-3.49-0.43-4.31c-0.29-0.82-0.62-1.23-1-1.23c-0.85,0-1.91,1.31-3.19,3.93
		c-1.28,2.62-2.51,5.48-3.7,8.57c-0.09,0.25-0.21,0.5-0.36,0.73c-0.15,0.23-0.31,0.35-0.47,0.35c-0.4,0-0.59-0.13-0.59-0.38
		c0-1.1-0.04-3.15-0.13-6.17c-0.09-3.01-0.16-5-0.22-5.95c-0.16-3.22-0.31-5.21-0.46-5.97c-0.14-0.76-0.22-1.16-0.22-1.22
		c0-0.18,0.1-0.31,0.3-0.4c0.2-0.09,0.45-0.14,0.76-0.14c0.25,0,0.44,0.57,0.55,1.71s0.2,2.61,0.26,4.39l0.03,0.76
		c0.04,0.56,0.06,2.16,0.08,4.79c0.02,2.64,0.03,4.58,0.03,5.82c0.83-2.07,1.61-3.92,2.34-5.54c0.73-1.62,1.57-3.14,2.52-4.55
		s1.84-2.12,2.65-2.12c0.68,0,1.26,0.57,1.73,1.71c0.47,1.14,0.7,2.85,0.7,5.12c0,1.01,0.02,2.41,0.05,4.21l0.03,2.83
		C370.59,39.51,370.52,39.7,370.37,39.85z"/>
	<path class="st1" d="M385.74,32.44c0,0.32-0.24,1.04-0.72,2.13c-0.48,1.1-1.2,2.12-2.16,3.05s-2.15,1.4-3.55,1.4
		c-1.15,0-2.12-0.36-2.89-1.08c-0.77-0.72-1.16-1.83-1.16-3.32c0-1.4,0.32-2.79,0.97-4.17c0.65-1.38,1.49-2.5,2.54-3.38
		s2.12-1.31,3.24-1.31c0.67,0,1.23,0.15,1.69,0.45s0.69,0.73,0.69,1.28c0,0.63-0.36,1.24-1.07,1.84c-0.71,0.59-1.63,1.12-2.77,1.57
		c-1.13,0.45-2.3,0.77-3.51,0.97c-0.22,0.83-0.32,1.64-0.32,2.43c0,1.04,0.25,1.85,0.74,2.43c0.5,0.58,1.2,0.86,2.12,0.86
		c1.39,0,2.51-0.49,3.38-1.48c0.86-0.99,1.58-2.11,2.16-3.35c0.04-0.07,0.1-0.21,0.19-0.42c0.09-0.21,0.17-0.31,0.24-0.31
		C385.67,32.03,385.74,32.17,385.74,32.44z M382.73,27.12c-0.3-0.16-0.64-0.24-1.04-0.24c-0.68,0-1.34,0.23-1.97,0.67
		c-0.63,0.45-1.16,0.99-1.58,1.62c-0.42,0.63-0.7,1.19-0.82,1.67c0.83-0.09,1.7-0.32,2.62-0.7s1.69-0.79,2.31-1.24
		c0.62-0.45,0.93-0.82,0.93-1.11C383.17,27.51,383.02,27.28,382.73,27.12z"/>
	<path class="st1" d="M398.22,28.11c-0.23,0.21-0.42,0.31-0.58,0.31c-0.13,0-0.25-0.05-0.36-0.16s-0.25-0.26-0.39-0.46
		c-0.13-0.18-0.29-0.33-0.5-0.46c-0.21-0.13-0.42-0.19-0.63-0.19c-0.52,0-1.22,0.69-2.11,2.07s-1.75,3.11-2.59,5.2
		c0.02,0.41,0.05,0.94,0.09,1.57c0.04,0.63,0.08,1.1,0.09,1.4l0.08,1.08c0,0.25-0.05,0.47-0.16,0.66c-0.11,0.19-0.31,0.28-0.59,0.28
		c-0.31,0-0.5-0.41-0.59-1.23s-0.14-2.01-0.16-3.58c-0.02-0.4-0.03-0.96-0.04-1.7c-0.01-0.74-0.03-1.62-0.07-2.65
		c-0.05-1.55-0.08-2.65-0.08-3.32c0-0.41,0.25-0.62,0.76-0.62c0.31,0,0.49,0.13,0.55,0.39c0.06,0.26,0.09,0.76,0.09,1.5v4.29
		c0.54-1.39,1.12-2.58,1.75-3.59c0.63-1.01,1.25-1.78,1.85-2.31c0.6-0.53,1.14-0.8,1.61-0.8c0.4,0,0.77,0.09,1.13,0.27
		c0.36,0.18,0.65,0.41,0.86,0.69c0.22,0.28,0.32,0.54,0.32,0.8C398.56,27.71,398.45,27.9,398.22,28.11z"/>
	<path class="st1" d="M412.3,32.44c0,0.32-0.24,1.04-0.72,2.13c-0.48,1.1-1.2,2.12-2.16,3.05s-2.15,1.4-3.55,1.4
		c-1.15,0-2.12-0.36-2.89-1.08c-0.77-0.72-1.16-1.83-1.16-3.32c0-1.4,0.32-2.79,0.97-4.17c0.65-1.38,1.49-2.5,2.54-3.38
		s2.12-1.31,3.24-1.31c0.67,0,1.23,0.15,1.69,0.45s0.69,0.73,0.69,1.28c0,0.63-0.36,1.24-1.07,1.84c-0.71,0.59-1.63,1.12-2.77,1.57
		c-1.13,0.45-2.3,0.77-3.51,0.97c-0.22,0.83-0.32,1.64-0.32,2.43c0,1.04,0.25,1.85,0.74,2.43c0.5,0.58,1.2,0.86,2.12,0.86
		c1.39,0,2.51-0.49,3.38-1.48c0.86-0.99,1.58-2.11,2.16-3.35c0.04-0.07,0.1-0.21,0.19-0.42c0.09-0.21,0.17-0.31,0.24-0.31
		C412.24,32.03,412.3,32.17,412.3,32.44z M409.29,27.12c-0.3-0.16-0.64-0.24-1.04-0.24c-0.68,0-1.34,0.23-1.97,0.67
		c-0.63,0.45-1.16,0.99-1.58,1.62c-0.42,0.63-0.7,1.19-0.82,1.67c0.83-0.09,1.7-0.32,2.62-0.7s1.69-0.79,2.31-1.24
		c0.62-0.45,0.93-0.82,0.93-1.11C409.74,27.51,409.59,27.28,409.29,27.12z"/>
</g>
<g>
	<rect x="185.84" y="33.36" class="st2" width="2.78" height="1.11"/>
</g>
<g>
</g>
<g>
</g>
<g>
</g>
<g>
</g>
<g>
</g>
<g>
</g>
<g>
</g>
</svg>
